<svg width="0" height="0" class="hidden" xmlns="http://www.w3.org/2000/svg">
   <symbol width="18" height="18" viewBox="0 0 18 18" fill="inherit" id="icon-search">
      <path
         d="M17.1633 15.8367L13.4531 12.125C14.5656 10.6754 15.0849 8.85687 14.9059 7.03839C14.7268 5.21991 13.8628 3.53763 12.489 2.3328C11.1152 1.12798 9.33451 0.490822 7.50822 0.550592C5.68193 0.610363 3.94675 1.36258 2.65467 2.65466C1.3626 3.94673 0.610378 5.68191 0.550608 7.50821C0.490837 9.3345 1.12799 11.1151 2.33282 12.4889C3.53765 13.8627 5.21993 14.7268 7.03841 14.9059C8.85688 15.0849 10.6754 14.5655 12.125 13.4531L15.8383 17.1672C15.9255 17.2544 16.029 17.3236 16.143 17.3708C16.2569 17.418 16.379 17.4423 16.5024 17.4423C16.6257 17.4423 16.7478 17.418 16.8617 17.3708C16.9757 17.3236 17.0792 17.2544 17.1664 17.1672C17.2536 17.08 17.3228 16.9765 17.37 16.8625C17.4172 16.7486 17.4415 16.6265 17.4415 16.5031C17.4415 16.3798 17.4172 16.2577 17.37 16.1437C17.3228 16.0298 17.2536 15.9263 17.1664 15.8391L17.1633 15.8367ZM2.43752 7.75C2.43752 6.69929 2.74909 5.67217 3.33283 4.79853C3.91658 3.9249 4.74628 3.24398 5.71701 2.84189C6.68774 2.4398 7.75591 2.33459 8.78643 2.53958C9.81696 2.74456 10.7636 3.25053 11.5065 3.9935C12.2495 4.73646 12.7555 5.68306 12.9604 6.71358C13.1654 7.74411 13.0602 8.81227 12.6581 9.78301C12.256 10.7537 11.5751 11.5834 10.7015 12.1672C9.82785 12.7509 8.80073 13.0625 7.75002 13.0625C6.3415 13.0611 4.99108 12.5009 3.99511 11.5049C2.99914 10.5089 2.43896 9.15852 2.43752 7.75Z"
         fill="inherit"
      />
   </symbol>
   <symbol width="18" height="16" viewBox="0 0 18 16" id="icon-cart" fill="inherit">
      <path
         d="M15.875 0.8125H2.125C1.7106 0.8125 1.31317 0.97712 1.02015 1.27015C0.72712 1.56317 0.5625 1.9606 0.5625 2.375V13.625C0.5625 14.0394 0.72712 14.4368 1.02015 14.7299C1.31317 15.0229 1.7106 15.1875 2.125 15.1875H15.875C16.2894 15.1875 16.6868 15.0229 16.9799 14.7299C17.2729 14.4368 17.4375 14.0394 17.4375 13.625V2.375C17.4375 1.9606 17.2729 1.56317 16.9799 1.27015C16.6868 0.97712 16.2894 0.8125 15.875 0.8125ZM15.5625 13.3125H2.4375V2.6875H15.5625V13.3125ZM4.9375 4.875C4.9375 4.62636 5.03627 4.3879 5.21209 4.21209C5.3879 4.03627 5.62636 3.9375 5.875 3.9375C6.12364 3.9375 6.3621 4.03627 6.53791 4.21209C6.71373 4.3879 6.8125 4.62636 6.8125 4.875C6.8125 5.45516 7.04297 6.01156 7.4532 6.4218C7.86344 6.83203 8.41984 7.0625 9 7.0625C9.58016 7.0625 10.1366 6.83203 10.5468 6.4218C10.957 6.01156 11.1875 5.45516 11.1875 4.875C11.1875 4.62636 11.2863 4.3879 11.4621 4.21209C11.6379 4.03627 11.8764 3.9375 12.125 3.9375C12.3736 3.9375 12.6121 4.03627 12.7879 4.21209C12.9637 4.3879 13.0625 4.62636 13.0625 4.875C13.0625 5.95244 12.6345 6.98575 11.8726 7.74762C11.1108 8.50949 10.0774 8.9375 9 8.9375C7.92256 8.9375 6.88925 8.50949 6.12738 7.74762C5.36551 6.98575 4.9375 5.95244 4.9375 4.875Z"
         fill="inherit"
      />
   </symbol>

   <symbol width="16" height="16" viewBox="0 0 16 16" id="icon-star" fill="inherit">
      <path
         d="M15.0539 12.232C14.9906 12.3377 14.9071 12.4298 14.8082 12.5032C14.7092 12.5766 14.5968 12.6297 14.4773 12.6596C14.3578 12.6895 14.2336 12.6956 14.1117 12.6774C13.9899 12.6593 13.8728 12.6173 13.7672 12.5539L8.93753 9.65547V14.875C8.93753 15.1236 8.83875 15.3621 8.66294 15.5379C8.48712 15.7137 8.24867 15.8125 8.00003 15.8125C7.75139 15.8125 7.51293 15.7137 7.33711 15.5379C7.1613 15.3621 7.06253 15.1236 7.06253 14.875V9.65547L2.23284 12.5539C2.12727 12.6173 2.01025 12.6592 1.88848 12.6773C1.7667 12.6955 1.64254 12.6894 1.52309 12.6596C1.40365 12.6297 1.29125 12.5766 1.19232 12.5033C1.09339 12.43 1.00986 12.338 0.946511 12.2324C0.818564 12.0192 0.780556 11.7639 0.840846 11.5227C0.901136 11.2814 1.05479 11.074 1.268 10.9461L6.17815 8L1.268 5.05391C1.05479 4.92596 0.901136 4.71856 0.840846 4.47732C0.780556 4.23609 0.818564 3.98079 0.946511 3.76758C1.07446 3.55437 1.28186 3.40072 1.52309 3.34043C1.76433 3.28014 2.01963 3.31815 2.23284 3.44609L7.06253 6.34453V1.125C7.06253 0.87636 7.1613 0.637903 7.33711 0.462087C7.51293 0.286272 7.75139 0.1875 8.00003 0.1875C8.24867 0.1875 8.48712 0.286272 8.66294 0.462087C8.83875 0.637903 8.93753 0.87636 8.93753 1.125V6.34453L13.7672 3.44609C13.8728 3.38274 13.9898 3.3408 14.1116 3.32267C14.2334 3.30454 14.3575 3.31058 14.477 3.34043C14.5964 3.37028 14.7088 3.42337 14.8077 3.49666C14.9067 3.56995 14.9902 3.66201 15.0535 3.76758C15.1169 3.87315 15.1588 3.99016 15.177 4.11194C15.1951 4.23372 15.1891 4.35788 15.1592 4.47732C15.1294 4.59677 15.0763 4.70917 15.003 4.8081C14.9297 4.90703 14.8376 4.99055 14.7321 5.05391L9.8219 8L14.7321 10.9461C14.9452 11.074 15.0989 11.2813 15.1593 11.5224C15.2196 11.7636 15.1817 12.0188 15.0539 12.232Z"
         fill="inherit"
      />
   </symbol>

   <symbol width="14" height="15" viewBox="0 0 14 15" id="icon-trashcan" fill="inherit">
      <path
         d="M12.5 3H10.25V2.25C10.25 1.78587 10.0656 1.34075 9.73744 1.01256C9.40925 0.684374 8.96413 0.5 8.5 0.5H5.5C5.03587 0.5 4.59075 0.684374 4.26256 1.01256C3.93437 1.34075 3.75 1.78587 3.75 2.25V3H1.5C1.30109 3 1.11032 3.07902 0.96967 3.21967C0.829018 3.36032 0.75 3.55109 0.75 3.75C0.75 3.94891 0.829018 4.13968 0.96967 4.28033C1.11032 4.42098 1.30109 4.5 1.5 4.5H1.75V13C1.75 13.3315 1.8817 13.6495 2.11612 13.8839C2.35054 14.1183 2.66848 14.25 3 14.25H11C11.3315 14.25 11.6495 14.1183 11.8839 13.8839C12.1183 13.6495 12.25 13.3315 12.25 13V4.5H12.5C12.6989 4.5 12.8897 4.42098 13.0303 4.28033C13.171 4.13968 13.25 3.94891 13.25 3.75C13.25 3.55109 13.171 3.36032 13.0303 3.21967C12.8897 3.07902 12.6989 3 12.5 3ZM5.25 2.25C5.25 2.1837 5.27634 2.12011 5.32322 2.07322C5.37011 2.02634 5.4337 2 5.5 2H8.5C8.5663 2 8.62989 2.02634 8.67678 2.07322C8.72366 2.12011 8.75 2.1837 8.75 2.25V3H5.25V2.25ZM10.75 12.75H3.25V4.5H10.75V12.75ZM6.25 6.5V10.5C6.25 10.6989 6.17098 10.8897 6.03033 11.0303C5.88968 11.171 5.69891 11.25 5.5 11.25C5.30109 11.25 5.11032 11.171 4.96967 11.0303C4.82902 10.8897 4.75 10.6989 4.75 10.5V6.5C4.75 6.30109 4.82902 6.11032 4.96967 5.96967C5.11032 5.82902 5.30109 5.75 5.5 5.75C5.69891 5.75 5.88968 5.82902 6.03033 5.96967C6.17098 6.11032 6.25 6.30109 6.25 6.5ZM9.25 6.5V10.5C9.25 10.6989 9.17098 10.8897 9.03033 11.0303C8.88968 11.171 8.69891 11.25 8.5 11.25C8.30109 11.25 8.11032 11.171 7.96967 11.0303C7.82902 10.8897 7.75 10.6989 7.75 10.5V6.5C7.75 6.30109 7.82902 6.11032 7.96967 5.96967C8.11032 5.82902 8.30109 5.75 8.5 5.75C8.69891 5.75 8.88968 5.82902 9.03033 5.96967C9.17098 6.11032 9.25 6.30109 9.25 6.5Z"
         fill="inherit"
      />
   </symbol>

   <symbol viewBox="0 0 8 7" id="icon-close" fill="inherit">
      <g clip-path="url(#clip0_19_2146)">
         <path
            d="M0.845383 5.71221L6.05829 0.499305L7.24098 1.682L2.02808 6.89491L0.845383 5.71221ZM0.845383 1.682L2.02808 0.499305L7.24098 5.71221L6.05829 6.89491L0.845383 1.682Z"
            fill="inherit"
         />
      </g>
      <defs>
         <clipPath id="clip0_19_2146">
            <rect width="inherit" height="inherit" fill="none" />
         </clipPath>
      </defs>
   </symbol>
   <symbol id="icon-minus" viewBox="0 0 10 2" fill="#2E3438">
      <path
         d="M5.53968 0.462471H9V1.53757H5.53968L4.46032 1.53759L1 1.53757V0.462471H4.46032H5.53968Z"
         fill="inherit"
         stroke="#2E3438"
         stroke-width="0.6"
      />
   </symbol>
   <symbol id="icon-plus" viewBox="0 0 10 10" fill="#2E3438">
      <path
         d="M5.53968 4.46245H9V5.53755H5.53968V9H4.46032V5.53755H1V4.46245H4.46032V1H5.53968V4.46245Z"
         fill="inherit"
         stroke="#2E3438"
         stroke-width="0.6"
      />
   </symbol>
</svg>
